{
  "accessors": [
    {
      "bufferView": 2,
      "componentType": 5126,
      "count": 4,
      "max": [
        343.53125,
        -324.7591552734375,
        3826.66064453125
      ],
      "min": [
        339.8376770019531,
        -407.7362060546875,
        3503.400146484375
      ],
      "type": "VEC3"
    },
    {
      "bufferView": 1,
      "componentType": 5126,
      "count": 4,
      "max": [
        0.0,
        0.0
      ],
      "min": [
        0.0,
        0.0
      ],
      "type": "VEC2"
    },
    {
      "bufferView": 0,
      "componentType": 5125,
      "count": 4,
      "type": "SCALAR"
    },
    {
      "bufferView": 2,
      "byteOffset": 48,
      "componentType": 5126,
      "count": 10036,
      "max": [
        1919.4163818359375,
        3859.16162109375,
        4932.064453125
      ],
      "min": [
        -1878.24267578125,
        -956.4210205078125,
        -0.3497309982776642
      ],
      "type": "VEC3"
    },
    {
      "bufferView": 2,
      "byteOffset": 120480,
      "componentType": 5126,
      "count": 10036,
      "max": [
        1.0,
        1.0,
        1.0
      ],
      "min": [
        -1.0,
        -1.0,
        -1.0
      ],
      "type": "VEC3"
    },
    {
      "bufferView": 3,
      "componentType": 5126,
      "count": 10036,
      "max": [
        1.0,
        1.0,
        1.0,
        1.0
      ],
      "min": [
        -1.0,
        -1.0,
        -1.0,
        -1.0
      ],
      "type": "VEC4"
    },
    {
      "bufferView": 1,
      "byteOffset": 32,
      "componentType": 5126,
      "count": 10036,
      "max": [
        0.9993379712104797,
        3.1975769996643066
      ],
      "min": [
        0.0015829999465495348,
        -2.7191638946533203
      ],
      "type": "VEC2"
    },
    {
      "bufferView": 0,
      "byteOffset": 16,
      "componentType": 5125,
      "count": 20856,
      "type": "SCALAR"
    },
    {
      "bufferView": 2,
      "byteOffset": 240912,
      "componentType": 5126,
      "count": 1598,
      "max": [
        1860.508544921875,
        3764.63525390625,
        5707.12353515625
      ],
      "min": [
        -1571.4215087890625,
        -935.2708740234375,
        -0.3497309982776642
      ],
      "type": "VEC3"
    },
    {
      "bufferView": 2,
      "byteOffset": 260088,
      "componentType": 5126,
      "count": 1598,
      "max": [
        0.9789436459541321,
        0.993514895439148,
        0.7503920197486877
      ],
      "min": [
        -0.9789436459541321,
        -1.0,
        -1.0
      ],
      "type": "VEC3"
    },
    {
      "bufferView": 3,
      "byteOffset": 160576,
      "componentType": 5126,
      "count": 1598,
      "max": [
        1.0,
        0.9986617565155029,
        1.0,
        1.0
      ],
      "min": [
        -0.9999982118606567,
        -1.0,
        -1.0,
        -1.0
      ],
      "type": "VEC4"
    },
    {
      "bufferView": 1,
      "byteOffset": 80320,
      "componentType": 5126,
      "count": 1598,
      "max": [
        0.8879340291023254,
        1.4970240592956543
      ],
      "min": [
        0.03464600071310997,
        -0.7503979802131653
      ],
      "type": "VEC2"
    },
    {
      "bufferView": 0,
      "byteOffset": 83440,
      "componentType": 5125,
      "count": 3879,
      "type": "SCALAR"
    }
  ],
  "asset": {
    "extras": {
      "author": "hamma085 (https://sketchfab.com/hamma085)",
      "license": "CC-BY-4.0 (http://creativecommons.org/licenses/by/4.0/)",
      "source": "https://sketchfab.com/3d-models/milwaukee-road-depot-9156c959180c4429a7f4bd16c8578ca3",
      "title": "Milwaukee Road Depot"
    },
    "generator": "Sketchfab-12.68.0",
    "version": "2.0"
  },
  "bufferViews": [
    {
      "buffer": 0,
      "byteLength": 98956,
      "name": "floatBufferViews",
      "target": 34963
    },
    {
      "buffer": 0,
      "byteLength": 93104,
      "byteOffset": 98956,
      "byteStride": 8,
      "name": "floatBufferViews",
      "target": 34962
    },
    {
      "buffer": 0,
      "byteLength": 279264,
      "byteOffset": 192060,
      "byteStride": 12,
      "name": "floatBufferViews",
      "target": 34962
    },
    {
      "buffer": 0,
      "byteLength": 186144,
      "byteOffset": 471324,
      "byteStride": 16,
      "name": "floatBufferViews",
      "target": 34962
    }
  ],
  "buffers": [
    {
      "byteLength": 657468,
      "uri": "scene.bin"
    }
  ],
  "images": [
    {
      "uri": "textures/Material_baseColor.png"
    },
    {
      "uri": "textures/Material_normal.png"
    }
  ],
  "materials": [
    {
      "alphaMode": "BLEND",
      "doubleSided": true,
      "name": "Material",
      "normalTexture": {
        "index": 1
      },
      "pbrMetallicRoughness": {
        "baseColorTexture": {
          "index": 0
        },
        "metallicFactor": 0.0,
        "roughnessFactor": 0.6
      }
    }
  ],
  "meshes": [
    {
      "name": "Object_0",
      "primitives": [
        {
          "attributes": {
            "POSITION": 0,
            "TEXCOORD_0": 1
          },
          "indices": 2,
          "material": 0,
          "mode": 1
        }
      ]
    },
    {
      "name": "Object_1",
      "primitives": [
        {
          "attributes": {
            "NORMAL": 4,
            "POSITION": 3,
            "TANGENT": 5,
            "TEXCOORD_0": 6
          },
          "indices": 7,
          "material": 0,
          "mode": 4
        }
      ]
    },
    {
      "name": "Object_2",
      "primitives": [
        {
          "attributes": {
            "NORMAL": 9,
            "POSITION": 8,
            "TANGENT": 10,
            "TEXCOORD_0": 11
          },
          "indices": 12,
          "material": 0,
          "mode": 4
        }
      ]
    }
  ],
  "nodes": [
    {
      "children": [
        1
      ],
      "matrix": [
        1.0,
        0.0,
        0.0,
        0.0,
        0.0,
        2.220446049250313e-16,
        -1.0,
        0.0,
        0.0,
        1.0,
        2.220446049250313e-16,
        0.0,
        0.0,
        0.0,
        0.0,
        1.0
      ],
      "name": "Sketchfab_model"
    },
    {
      "children": [
        2,
        3,
        4
      ],
      "name": "milwaukeeroaddepot.obj.cleaner.materialmerger.gles"
    },
    {
      "mesh": 0,
      "name": "Object_2"
    },
    {
      "mesh": 1,
      "name": "Object_3"
    },
    {
      "mesh": 2,
      "name": "Object_4"
    }
  ],
  "samplers": [
    {
      "magFilter": 9729,
      "minFilter": 9987,
      "wrapS": 10497,
      "wrapT": 10497
    }
  ],
  "scene": 0,
  "scenes": [
    {
      "name": "Sketchfab_Scene",
      "nodes": [
        0
      ]
    }
  ],
  "textures": [
    {
      "sampler": 0,
      "source": 0
    },
    {
      "sampler": 0,
      "source": 1
    }
  ]
}
