<?xml version="1.0" encoding="UTF-8" standalone="no"?>
<!-- Created with Inkscape (http://www.inkscape.org/) -->
<svg
   xmlns:svg="http://www.w3.org/2000/svg"
   xmlns="http://www.w3.org/2000/svg"
   version="1.0"
   width="1091.9919"
   height="630.11902"
   viewBox="0 0 1091.992 630.119"
   id="svg2">
  <defs
     id="defs558" />
  <g style="fill:#ccc" id="State_Outline">
    <polygon points="715.671,134.212 715.368,133.002 717.637,134.061 718.771,132.926 720.359,131.338 722.704,128.994 724.141,130.733 724.897,130.733 726.787,128.843 728.527,126.801 731.854,125.289 734.274,127.104 732.913,130.885 732.913,133.002 731.325,134.59 728.829,135.725 726.107,136.784 723.385,136.784 721.343,138.826 718.091,137.691 716.427,135.271 715.671,134.212 " id="polygon92" />
    <polygon points="710.074,137.389 705.234,137.389 703.646,138.977 701.15,140.716 699.335,138.901 694.949,140.262 695.252,142.985 696.387,144.12 698.05,145.783 699.185,146.917 697.521,148.279 695.252,146.313 694.042,147.522 692.378,145.858 688.597,146.615 686.933,145.708 686.177,147.674 687.387,148.883 685.118,150.094 685.118,152.967 686.934,154.782 686.479,156.9 688.143,156.9 690.261,159.018 689.655,161.438 692.378,162.799 696.008,162.95 697.521,164.462 700.243,164.462 703.419,163.555 703.419,161.135 701.453,159.32 702.512,158.261 704.1,159.849 706.898,154.783 709.545,152.136 710.68,153.27 713.1,150.85 713.855,148.581 711.133,147.674 709.318,149.489 707.05,147.825 704.327,146.161 701.604,144.195 702.512,142.229 703.949,140.792 705.083,144.648 706.822,146.388 709.771,146.917 711.587,146.161 713.1,146.161 714.611,144.649 713.855,141.472 711.436,141.472 712.041,138.75 712.041,136.784 710.074,137.389 " id="polygon94" />
    <polygon points="712.646,164.009 711.284,165.219 712.343,168.244 714.083,169.984 715.52,167.185 715.52,164.917 714.461,163.858 712.646,164.009 " id="polygon96" />
    <polygon points="718.847,166.731 717.107,168.471 718.091,170.815 719.755,172.479 718.695,174.899 719.604,175.807 720.965,172.933 724.443,172.176 727.469,170.966 731.552,168.546 729.435,164.614 726.561,164.614 722.477,163.252 720.586,164.992 718.847,166.731 " id="polygon98" />
    <polygon points="684.815,160.227 683.454,158.866 681.034,158.715 682.623,160.303 683.605,163.857 685.571,163.857 685.571,161.891 684.815,160.227 " id="polygon100" />
    <polygon points="609.188,219.064 606.391,221.862 606.391,223.752 608.734,223.752 609.491,225.567 611.457,224.66 613.727,222.391 613.727,218.761 610.853,218.761 609.188,219.064 " id="polygon102" />
    <polygon points="707.798,112.583 706.891,114.247 707.874,115.23 709.009,114.247 707.798,112.583 " id="polygon104" />
    <polygon points="699.328,178.68 696.454,178.075 695.547,178.831 697.211,179.587 699.328,181.251 700.235,180.041 699.328,178.68 " id="polygon106" />
    <polygon points="577.419,181.252 576.813,182.16 578.175,183.067 578.779,182.008 577.419,181.252 " id="polygon108" />
    <polygon points="570.915,167.791 569.402,168.698 571.52,169.757 573.032,170.815 574.696,170.362 574.242,168.396 572.578,168.849 570.915,167.791 " id="polygon110" />
    <polygon points="556.092,160.379 556.092,158.262 556.243,154.48 555.185,152.363 553.672,152.514 551.555,155.085 551.706,157.354 550.798,158.867 551.403,162.951 549.588,164.766 549.739,168.849 548.832,172.328 548.075,175.807 549.437,176.563 552.311,174.294 553.975,173.236 557.756,171.27 560.781,170.967 564.563,168.093 566.377,164.614 565.167,161.589 563.806,159.32 561.991,160.077 560.176,156.9 558.814,155.539 557.15,157.505 556.092,160.379 " id="polygon112" />
    <path d="M 542.479,144.195 L 541.118,145.859 L 539.908,148.128 L 538.849,147.674 L 539.605,144.8 L 539.605,141.775 L 536.278,142.834 C 536.278,142.834 534.312,143.288 533.858,143.439 C 533.404,143.59 531.135,144.347 531.135,144.347 L 530.076,146.616 L 529.471,148.582 L 528.11,150.246 L 528.564,152.212 L 525.993,154.178 L 527.203,155.237 L 529.017,154.632 L 530.53,156.749 L 530.681,158.715 L 532.042,160.379 L 535.521,160.681 L 535.975,162.647 L 538.395,161.135 L 539.605,163.101 L 542.932,164.311 L 546.109,162.798 L 547.622,160.68 L 546.412,158.26 L 544.445,155.537 L 545.958,154.478 L 546.563,151.907 L 545.806,149.033 L 546.109,146.159 L 542.479,144.195 z " id="path114" />
    <polygon points="539.757,190.479 538.244,192.293 536.278,192.747 538.093,194.108 539.908,192.293 539.757,190.479 " id="polygon116" />
    <polygon points="514.498,189.874 513.742,191.083 514.8,191.991 516.162,190.024 514.498,189.874 " id="polygon118" />
    <path d="M 498.919,231.316 L 497.104,232.224 C 497.104,232.224 497.86,234.493 497.86,234.19 C 497.86,233.887 499.221,233.585 499.221,233.585 L 498.919,231.316 z " id="path120" />
    <polygon points="485.912,217.704 484.248,219.064 485.155,220.88 486.667,220.577 485.912,217.704 " id="polygon122" />
    <polygon points="485.306,237.518 485.004,239.181 487.575,239.181 488.937,240.542 489.088,238.273 487.575,237.971 485.306,237.518 " id="polygon124" />
    <polygon points="476.534,147.825 475.626,148.733 476.685,149.338 478.349,150.548 478.803,149.035 476.534,147.825 " id="polygon126" />
    <polygon points="467.308,253.247 466.249,254.608 466.854,256.423 467.913,257.785 469.425,256.121 470.03,254.155 468.669,252.793 467.308,253.247 " id="polygon128" />
    <polygon points="459.594,258.39 457.93,260.054 456.115,261.566 457.779,262.776 459.14,261.566 461.258,261.566 463.224,259.751 461.409,257.936 459.594,258.39 " id="polygon130" />
    <polygon points="454.149,241.601 452.788,242.811 453.695,244.172 455.51,242.962 457.779,243.567 457.174,242.206 454.149,241.601 " id="polygon132" />
    <polygon points="447.191,247.651 446.435,249.617 447.645,250.676 449.006,249.012 447.191,247.651 " id="polygon134" />
    <polygon points="431.009,237.82 429.345,239.03 429.95,240.392 428.74,242.055 429.042,243.114 431.765,243.87 434.336,242.66 435.849,242.812 435.849,241.299 433.429,240.694 434.639,239.333 433.277,237.367 431.614,237.972 431.009,237.82 " id="polygon136" />
    <polygon points="365.365,261.717 362.945,262.927 361.13,263.532 361.584,267.465 361.886,269.583 363.55,270.036 364.155,273.212 367.332,273.515 368.39,270.944 366.877,268.373 367.029,265.499 365.365,261.717 " id="polygon138" />
    <polygon points="311.822,248.559 308.495,249.466 306.528,252.038 305.016,254.004 306.074,256.877 308.495,257.785 310.763,258.692 312.881,257.18 315.452,257.634 316.813,254.458 314.696,251.735 314.544,249.466 311.822,248.559 " id="polygon140" />
    <polygon points="213.811,250.676 213.206,251.583 214.265,252.945 215.626,251.583 213.811,250.676 " id="polygon142" />
    <polygon points="354.776,252.794 353.112,252.794 351.297,250.071 350.239,250.676 347.063,247.651 344.642,245.08 345.55,242.357 347.97,241.601 348.877,240.089 347.213,238.728 347.365,235.097 346.306,234.795 345.247,232.072 342.979,231.921 341.164,229.35 341.769,226.022 344.188,222.695 347.063,222.997 347.97,224.056 349.028,224.51 349.482,222.543 352.961,221.485 355.684,218.611 353.869,216.645 356.289,215.132 359.011,216.191 359.768,213.922 359.768,211.653 363.246,211.653 364.91,213.317 366.649,211.578 367.027,209.99 370.809,209.233 369.523,207.948 366.271,206.813 366.271,205.604 370.053,204.544 373.985,203.486 375.951,201.52 378.522,201.52 378.522,199.705 382.153,199.553 380.187,197.587 383.363,197.436 384.573,198.646 384.421,195.621 385.934,194.108 384.27,192.142 385.329,190.478 387.144,192.293 389.413,192.293 389.413,190.024 392.74,191.234 394.404,189.419 396.068,187.453 398.186,187.453 401.815,185.79 404.387,186.697 408.168,186.697 410.664,184.201 413.613,184.428 414.974,186.395 418.15,186.395 419.663,187.907 422.386,187.15 426.167,187.15 428.663,184.655 431.612,183.067 435.544,181.554 439.174,181.554 441.292,184.882 441.292,188.512 438.116,191.386 435.242,194.108 431.461,194.411 426.923,196.528 422.839,195.016 420.873,196.982 416.184,196.831 410.134,196.831 407.865,199.251 403.177,199.251 399.698,201.217 400.757,203.637 398.336,204.544 395.463,204.242 392.892,204.242 392.589,205.906 389.867,205.149 389.867,207.872 387.144,209.838 384.875,211.502 384.875,208.931 383.06,210.595 383.514,213.62 381.699,213.62 380.413,212.334 380.413,213.771 380.413,216.04 379.09,214.716 377.389,216.417 375.951,217.855 373.984,217.855 372.472,219.821 370.506,223.148 367.33,223.148 364.758,225.266 364.758,228.14 362.187,229.199 361.279,232.224 359.162,234.341 359.162,238.123 358.103,240.845 359.464,244.777 358.254,248.71 359.918,251.281 360.674,254.004 359.767,254.912 357.196,256.122 357.196,254.155 354.776,252.794 " id="polygon144" />
    <polygon points="489.25,128.245 488,128.495 487.188,129.307 488.438,130.557 490.125,129.995 491.125,128.995 489.25,128.245 " id="polygon146" />
    <polygon points="517.875,125.745 516.75,126.87 517.625,127.745 518.563,128.682 520.5,126.87 520.5,125.62 517.875,125.745 " id="polygon148" />
    <polygon points="529.875,124.12 529.5,126.62 527.25,127.62 523.875,129.87 523.875,132.995 525.25,134.37 523.438,136.182 522.25,138.495 523.875,140.745 524.5,142.995 527.375,145.495 530,142.995 531.75,142.995 534.375,141.495 537.5,140.495 536.625,137.495 536.625,133.745 538.5,132.12 536.938,130.557 533.75,127.37 532.625,124.87 529.875,124.12 " id="polygon150" />
    <polygon points="522.5,144.87 520.375,144.62 520.75,147.37 520.75,149.12 523.5,149.87 524.625,150.995 526.313,149.307 527.25,146.87 525.625,145.62 522.5,144.87 " id="polygon152" />
    <polygon points="489.125,208.87 488.313,209.682 489.375,210.62 491.125,210.12 489.125,208.87 " id="polygon154" />
    <polygon points="451.125,104.12 449.875,104.495 450.875,105.87 450.875,107.12 452.625,107.12 452.625,104.745 451.125,104.12 " id="polygon156" />
    <polygon points="450.75,114.745 449.875,116.12 446.625,116.745 444.5,117.87 446.125,118.62 445.375,120.37 446.75,120.745 449.5,120.745 451.688,118.557 453.313,116.932 452.75,114.495 450.75,114.745 " id="polygon158" />
    <polygon points="440.375,112.495 439.688,113.182 441,114.495 443.375,113.62 443.375,111.62 442,111.62 440.375,112.495 " id="polygon160" />
    <polygon points="438.563,116.432 436.75,114.37 435.375,115.745 434.375,117.745 434.375,120.245 436.5,120.62 437,122.12 439.625,121.495 441.313,119.807 442.563,118.557 443.25,116.495 441.375,116.495 438.563,116.432 " id="polygon162" />
    <polygon points="431.125,125.12 430.313,125.932 430.313,127.495 432,127.495 432.625,125.495 431.125,125.12 " id="polygon164" />
    <polygon points="427.625,118.745 426.75,117.87 424,117.87 424,119.745 422.5,121.245 423.375,122.12 426.375,121.495 427.5,122.62 430.125,121.995 430.875,120.245 432.75,120.87 431.75,118.62 430.063,116.932 427.625,118.745 " id="polygon166" />
    <polygon points="441.5,97.87 440.75,99.37 442.063,100.682 443.313,99.432 441.5,97.87 " id="polygon168" />
    <polygon points="438.75,101.37 436.75,101.37 436.75,103.62 438.875,105.745 438.875,107.495 440.75,106.62 439.625,104.245 438.75,101.37 " id="polygon170" />
    <polygon points="426.25,107.87 424.5,107.87 424.125,108.245 425.563,109.682 426.25,107.87 " id="polygon172" />
    <polygon points="427.75,110.745 426.563,111.932 427.75,113.245 429.125,113.12 427.75,110.745 " id="polygon174" />
    <polygon points="428.875,105.245 428.875,106.87 430.625,106.87 430.25,104.995 428.875,105.245 " id="polygon176" />
    <polygon points="431.313,109.307 431.313,110.745 432.75,110.745 431.625,109.62 431.313,109.307 " id="polygon178" />
    <polygon points="432.75,112.62 433.375,113.245 434.5,112.12 432.75,112.62 " id="polygon180" />
    <polygon points="434.5,105.995 434.5,107.745 436,107.87 436,105.995 434.5,105.995 " id="polygon182" />
    <polygon points="432.25,102.495 433.125,104.12 433.938,103.307 433.125,102.495 432.25,102.495 " id="polygon184" />
    <polygon points="416.125,112.995 415.188,113.932 416.813,115.557 418.625,115.62 418.625,112.62 417.375,110.995 416.125,112.995 " id="polygon186" />
    <polygon points="420.25,110.995 420.875,112.745 422.125,112.745 422.125,111.245 420.25,110.995 " id="polygon188" />
    <polygon points="413.25,100.995 412,102.245 412,103.62 410.563,105.057 408,103.245 405.875,104.37 405.875,105.87 403.25,103.995 401.25,104.745 401.875,107.745 403.75,107.12 403.75,109.12 405.75,109.62 407.563,107.807 410.125,106.745 412.25,107.37 415.375,107.37 417.625,105.12 415.5,102.995 416.938,101.557 414.5,100.12 413.25,100.995 " id="polygon190" />
    <polygon points="406.125,97.87 403.375,97.87 401.75,96.245 400.625,98.495 402.063,99.932 402.625,101.62 405.875,100.495 407,101.62 409.125,100.745 410,101.62 410,99.745 408.563,98.307 407.25,98.307 406.125,97.87 " id="polygon192" />
    <polygon points="408.563,111.057 407.5,111.057 407.875,112.62 410.125,112.745 408.563,111.057 " id="polygon194" />
    <polygon points="409,114.37 407.875,115.495 408.75,116.37 410.875,116.87 409.5,115.495 409,114.37 " id="polygon196" />
    <polygon points="418.125,98.245 418.125,99.87 419.375,99.87 420.625,98.62 418.125,98.245 " id="polygon198" />
    <path d="M 857.333,70.12 L 858.666,65.287 L 863.75,60.37 L 869.416,54.703 L 872,52.12 L 877,49.953 L 880.582,47.87 L 883.916,44.537 L 887.333,41.12 L 891.5,39.453 L 894.5,35.12 L 900.166,33.453 L 903.166,30.286 L 906.833,28.619 L 909.166,27.286 L 911.833,29.953 L 915.666,28.786 L 919.083,31.369 L 921.333,29.119 L 925.333,26.952 L 925.333,24.952 L 921.333,25.785 L 916.666,25.452 L 913.666,24.619 L 914.666,21.619 L 917.833,19.452 L 915.166,18.785 L 915.166,17.285 L 917,17.453 L 917.333,14.453 L 919,12.12 L 921.333,9.787 L 925.333,8.287 L 926.5,8.287 L 929.5,4.12 C 929.5,4.12 932.333,3.287 933.333,2.287 C 934.333,1.287 933.333,5.12 933.333,5.12 L 935.5,6.953 L 937.166,8.62 L 935.333,12.453 C 935.333,12.453 937.833,12.453 938.833,11.453 C 939.833,10.453 938.833,13.453 938.833,13.453 L 938.833,16.953 L 935,19.453 L 938,19.953 L 939.833,18.12 L 943.75,19.62 L 943.75,17.87 L 946.833,20.953 L 949,24.287 L 950.833,23.787 L 952.666,21.454 L 952.666,23.621 L 953.833,26.288 L 950.333,26.288 L 950.333,27.621 L 953.166,28.454 L 951.666,32.787 L 947.833,33.12 L 944.333,36.953 L 942.5,40.953 L 939,42.12 L 936.5,41.12 L 933.333,41.12 L 930.5,45.287 L 931.75,47.787 L 931.75,52.037 L 929,54.787 L 926.833,53.12 L 924.666,54.787 L 921.5,54.787 L 919.666,53.287 L 918,52.287 L 917.75,53.87 L 919,55.12 L 917.5,55.787 L 916.5,56.787 L 919.416,57.287 L 919.416,59.537 L 921.666,61.787 L 925.333,60.787 L 927.833,60.787 L 927.999,63.954 L 929.499,62.454 L 932.083,65.038 L 934.833,67.788 L 936.166,72.621 L 936.833,76.454 L 934.166,80.787 L 931.666,80.787 L 928.166,82.287 L 927,84.953 L 929.833,83.786 L 931.666,83.786 L 929,86.954 L 930.666,88.62 L 932.833,87.787 L 932.833,84.62 L 934.833,83.12 L 938.416,83.037 L 940.5,80.954 L 941.5,79.287 L 944,79.454 L 946,79.121 L 949.666,78.954 L 949.666,81.287 L 952.666,81.287 L 953.5,79.704 L 956.416,79.704 L 958.166,77.954 L 960.333,77.621 L 962.166,79.121 L 964.833,77.121 L 966.083,80.038 L 968.5,82.455 L 968.5,85.955 L 965.166,87.288 L 963,91.953 L 959.5,91.953 L 958.5,93.453 L 962.416,96.036 L 961.166,97.286 L 964,101.62 L 965.166,106.953 L 965.166,112.953 L 966.166,117.62 L 967.833,121.62 L 968.667,126.953 L 970.333,132.12 L 973.5,134.953 L 973.5,139.786 L 975.167,146.453 L 978,149.62 L 979.833,151.453 L 977,153.953 L 974,152.453 L 969.833,153.786 L 967.667,158.786 L 964.167,163.786 L 966,165.62 L 964.667,170.287 L 964.667,172.787 L 967.5,177.12 L 967.5,179.787 L 964.333,178.287 L 962,175.953 L 960,176.12 L 961.833,180.953 L 961.833,184.12 L 964.916,185.537 L 961.833,188.62 L 959.833,188.62 L 959.833,192.953 L 958,194.786 L 960.5,198.953 L 962.5,200.953 L 964.833,203.286 L 968,206.453 L 968.666,211.12 L 969.166,214.787 L 973.75,217.203 L 976.5,219.953 L 981.166,219.953 L 979.916,217.12 L 979.916,215.703 L 981.5,214.12 L 982.667,211.62 L 987,215.953 L 987.833,219.786 L 992.166,222.786 L 996.458,223.744 L 998.166,222.036 L 1000.916,222.036 L 1004.166,225.286 L 1002.833,228.453 L 999.5,229.453 L 1000.5,233.453 L 1004,239.286 L 1007.083,240.036 L 1009.5,242.453 L 1015.166,241.786 L 1018.5,244.453 L 1019.666,247.453 L 1017.666,248.786 L 1014.833,250.619 L 1013.166,254.286 L 1014.333,260.953 L 1017.666,266.12 L 1020.583,267.203 L 1022,268.62 L 1026.833,269.787 L 1026.833,271.787 L 1023.166,272.287 L 1023.166,275.287 L 1021.833,278.287 L 1023.5,284.287 L 1026.332,285.454 L 1030.666,289.787 L 1033.833,292.787 L 1034.5,298.12 L 1036.166,305.12 L 1037,309.62 L 1037,312.953 L 1035.166,310.453 L 1030.333,310.453 L 1027.25,308.87 L 1024.833,306.453 L 1021.5,306.453 L 1018.5,303.453 L 1012.666,300.786 L 1007.166,298.453 L 1000.833,295.12 L 999,292.62 L 996,290.62 L 992.666,289.953 L 985.5,287.786 L 980.833,285.286 L 976.333,282.286 L 974.166,278.286 L 969.333,273.453 L 966,269.953 L 965.999,266.453 L 963.666,264.12 L 963.166,260.287 L 960.333,256.287 L 957.249,255.62 L 957.249,254.203 L 958.666,252.786 L 959.833,250.286 L 958.25,247.536 L 959.75,246.036 L 961,244.786 L 959.333,239.786 L 958.5,234.453 L 956.5,228.286 L 953.333,224.119 L 952,218.619 L 950.5,213.452 L 948.833,209.285 L 946.833,203.118 L 944.833,201.451 L 944.666,198.118 L 945.833,194.118 L 945.833,191.785 L 945.833,188.952 L 943.833,186.952 L 941.666,182.785 L 939.5,182.785 L 937.416,182.035 L 935.5,180.118 L 933.166,177.118 L 929.666,174.951 L 929.666,171.118 L 932.833,168.119 L 931.749,167.035 L 929.166,169.618 L 925.5,171.618 L 925.5,175.118 L 924.5,177.785 L 926.499,179.618 L 929.416,182.535 L 932.166,185.285 L 935.5,185.285 L 935.166,187.452 L 933.666,187.285 L 932.083,189.535 L 934.166,191.618 L 934.166,196.951 L 935.833,200.951 L 936.166,207.284 L 935,211.12 L 933.666,207.787 L 930.666,206.287 L 930.667,210.454 L 928.167,207.954 L 926.5,206.287 L 925.166,203.454 L 920.5,199.121 L 921.833,202.788 L 920.5,206.788 L 916,206.788 L 916,209.455 L 914.5,214.955 L 912.666,217.122 L 912.833,224.455 L 915.833,226.455 L 915.333,231.122 L 918.333,235.789 L 918.333,240.789 L 919.25,247.372 L 922,250.122 L 922,253.122 L 924.333,255.455 L 926.5,255.122 L 928.416,253.372 L 929.833,251.955 L 932.333,251.955 L 932.166,255.122 L 929.5,255.955 L 929.5,260.455 L 924.5,261.288 L 925.666,267.121 L 925.166,269.621 L 922,270.953 L 922,274.453 L 920.833,277.62 C 920.833,277.62 916.916,278.537 917.666,277.787 C 918.416,277.037 916.166,276.287 916.166,276.287 L 916.166,274.12 L 916.833,271.953 L 919.583,271.036 L 918.333,269.786 L 915.333,270.953 L 912.166,271.453 L 912.166,272.953 L 907.5,275.12 L 905.166,277.953 L 902.5,278.62 L 900.333,280.787 L 899.5,283.287 L 900.332,286.454 L 902.166,288.287 L 900,290.62 L 896.5,289.287 L 897.583,292.87 L 895,295.453 L 892.666,297.62 L 890.666,297.62 L 888.666,299.453 L 890,301.62 L 891,302.62 L 888.166,304.453 L 884.333,304.453 L 880.583,308.203 L 878.166,310.62 L 875.499,315.12 L 872.666,317.953 L 869.833,323.62 L 869.333,329.12 L 872,334.453 L 869.5,336.953 L 868.667,342.286 L 870.166,346.119 L 872.5,348.452 L 870.5,351.785 L 870.5,356.285 L 870.5,362.285 L 869.5,366.452 L 869.5,372.119 L 871.167,373.952 L 871.167,377.952 L 871.167,382.452 L 869.667,388.119 L 869.667,392.786 L 867.167,396.953 L 867.167,401.119 L 865.833,404.786 L 867.333,408.161 L 869.875,408.161 L 871.833,406.203 L 874.582,406.203 L 876.75,404.035 L 879.166,401.619 L 880.833,403.286 L 882.833,404.286 L 882.833,406.453 L 884.417,409.369 L 886.417,411.369 L 888.167,409.619 L 888.167,406.953 L 885.833,405.953 L 885.833,403.453 L 887.667,401.453 L 887.667,403.119 L 889.667,404.619 L 890.667,404.286 L 891.667,405.286 L 891.667,408.286 L 891.667,410.453 L 895,409.12 L 895,407.454 L 896.833,404.954 L 898,403.954 L 899.833,405.287 L 900.25,402.537 L 898.667,400.954 L 897.167,398.12 L 895.333,394.787 L 898.333,393.121 L 900.167,391.287 L 903.833,390.454 L 908.167,390.454 L 911.75,390.871 L 913.333,392.454 C 913.333,392.454 917.167,391.787 918,391.787 C 918.833,391.787 921.166,390.786 921.166,390.786 L 923.25,392.87 L 921.666,394.454 L 920.5,395.62 L 919.5,397.454 L 922.333,397.454 L 925.333,397.454 L 926,399.62 L 928.5,402.12 L 931.584,401.704 L 933.167,403.287 L 934.833,406.454 L 935.333,412.787 L 937.5,419.454 L 940.916,424.37 L 945.166,428.62 L 946.833,430.288 L 947.666,433.12 L 951,436.454 L 953.333,440.454 L 954.167,442.788 L 957.25,447.538 L 959.833,450.12 L 959.833,457.12 L 958.833,463.12 L 960.667,469.12 L 960.5,475.286 L 962.333,480.12 L 963.666,485.454 L 964.666,490.286 L 965.666,496.786 L 965.666,503.12 L 964.666,506.454 L 964.666,512.954 L 964.666,520.954 L 963.666,526.954 L 964.666,533.12 L 964.333,541.12 L 964.333,544.954 L 961,550.454 L 958.833,555.12 L 956.333,559.788 L 954.166,559.788 L 950,561.453 L 946.5,563.453 L 944.083,562.453 L 944.083,560.203 L 942.833,558.953 L 941.582,561.787 L 941.582,564.869 L 940.166,563.453 L 938,561.287 L 938,562.953 L 937.333,567.119 L 938,569.953 L 937.083,573.203 L 935.666,574.619 L 935.666,576.287 L 935.666,578.953 L 932.5,578.787 L 931.166,577.453 L 932.333,573.619 L 934.333,569.619 L 934.333,566.287 L 932.583,562.369 L 929,558.787 L 927.166,556.953 L 925.666,553.119 L 922.5,549.953 L 919.5,548.953 L 919.416,545.703 L 921.5,543.619 L 923.333,541.787 L 923.333,538.453 L 925.666,536.119 L 928.333,534.787 L 931.084,535.703 L 933.5,533.287 L 935,530.287 L 932.333,526.119 L 933.666,522.619 L 932,518.953 L 931.666,515.119 L 929.333,511.953 L 930,509.287 L 928.166,506.119 L 927.333,502.453 L 924,498.953 L 926.5,496.453 L 926.5,492.785 L 924.417,490.703 L 922,488.285 L 921.333,486.119 L 918.5,486.119 L 914.5,488.285 L 913.5,491.619 L 910.833,495.953 L 907.833,499.785 L 909.167,503.953 L 905.667,506.785 L 902.167,508.785 L 899.167,509.785 L 898.333,512.785 L 895.167,512.785 L 892,510.953 L 889.667,510.119 L 889.667,506.285 L 887,503.953 L 884.833,501.785 L 881.25,500.869 L 879.333,502.785 L 875.5,501.785 L 872.333,500.953 L 867.5,501.619 L 863,501.619 L 861.167,503.453 L 856.167,505.285 L 851.167,504.285 L 849.084,500.203 L 846.667,497.785 C 846.667,497.785 843.834,496.119 843.834,495.451 C 843.834,494.783 840.667,492.285 840.667,492.285 L 836.667,491.619 L 835,487.619 L 831.166,484.619 L 828.5,481.953 L 824.833,480.953 L 823.5,477.453 L 820.166,475.953 L 818.166,473.953 L 811.5,473.285 L 808,473.285 L 804,475.453 L 799,474.619 L 795.166,475.953 L 791,475.953 L 785.332,480.119 L 782.666,482.785 L 777.416,485.869 L 774.833,488.453 L 773,493.953 L 771.666,497.285 L 773.5,499.619 L 776.083,497.535 L 778.166,499.619 L 780.5,501.953 L 781.833,507.285 L 780.5,510.119 L 779.5,517.285 L 779.5,521.785 L 777.666,526.453 L 780.166,531.285 L 781.666,532.785 L 781.666,537.453 L 778.166,538.453 L 775.916,543.703 L 772.666,546.953 L 767.166,548.953 L 761,548.453 L 756.5,547.619 L 753.167,549.619 L 748.5,552.285 L 745,550.453 L 741.833,549.285 L 737.667,551.119 L 734.167,554.619 L 731.667,557.119 L 730.25,562.035 L 727.333,564.953 L 723.5,567.619 L 718.167,570.119 L 714.083,574.203 L 712,576.285 L 706.667,576.285 L 701.833,577.785 L 695,577.785 L 690,578.453 L 685.5,576.953 L 684.166,574.453 L 681.833,572.119 L 675.5,572.119 L 669.667,571.285 L 667.333,569.785 L 659.667,570.869 L 654.916,570.869 L 651,574.785 L 646.667,575.785 L 642.5,576.953 L 636.5,576.453 L 632.418,574.703 L 629.834,572.119 L 627.418,567.035 L 624.334,563.953 L 620,562.287 L 615.834,562.287 L 611.084,563.535 L 607.834,560.287 L 601.334,560.287 L 597.5,557.453 L 595.583,559.369 L 593,561.953 L 590.917,566.203 L 588.667,568.453 L 588,572.787 L 590.084,575.287 L 590.084,579.035 L 593,581.953 L 593,585.953 L 589.084,588.537 L 585.334,592.287 L 582.167,592.287 L 577.334,592.287 L 572.834,591.119 L 568.167,591.953 L 564.834,590.953 L 560,589.285 L 557.334,586.619 L 554.167,583.453 L 550.334,582.287 L 545.834,584.119 L 543,581.285 L 539.417,579.703 L 536.5,582.619 L 532.834,582.619 L 531.667,586.119 L 527.334,586.119 L 521.834,589.619 L 518.5,592.953 L 515.167,592.953 L 514.5,596.453 L 510.584,597.369 L 507.834,600.119 L 502.834,599.953 L 498.667,602.285 L 496.5,604.453 L 491.667,603.619 L 490.167,601.119 L 488.334,597.785 L 487.417,594.369 L 484.834,596.953 L 480.501,598.619 L 476.501,597.285 L 472.001,596.119 L 472.001,592.119 L 468.501,589.953 L 467.168,586.953 L 464.335,585.119 L 463.668,581.119 L 461.335,578.953 L 458.21,577.578 L 456.168,575.537 L 451.918,575.537 L 449.835,577.619 L 445.668,578.287 L 444,576.619 L 440.334,577.285 L 438.334,575.285 L 436.501,573.453 L 436.501,570.953 L 434.668,568.787 L 432,569.619 L 430.167,573.453 L 426.5,574.119 L 424.333,569.787 L 423.166,565.953 L 422.333,561.619 L 419.5,556.619 L 419.5,552.619 L 416.833,550.119 L 416.833,544.619 L 414.833,537.953 L 412,535.119 L 410.167,533.287 L 408.25,529.203 L 406.167,527.119 L 403.334,525.953 L 403.334,522.953 L 405.667,522.953 L 407.667,520.287 L 406.834,517.953 L 403.834,517.953 L 401.334,520.453 L 397.834,520.619 L 395.251,520.703 L 392.501,523.453 L 387.834,524.787 L 383.834,526.953 L 382,524.287 L 378.5,525.953 L 375.667,525.953 L 376.667,521.453 L 380.667,519.619 L 380.667,517.287 L 377.334,517.287 L 374.334,515.453 L 372.501,517.287 L 369.168,516.287 L 370.251,512.369 L 367.834,509.953 L 364.501,511.953 L 360.834,510.953 L 359.917,508.037 L 362.001,505.953 L 362.001,502.787 L 362.834,500.453 L 361.501,496.287 L 359.001,495.119 L 356.001,495.119 L 354.501,492.119 L 350.334,492.119 L 347.001,490.119 L 343.334,489.785 L 341.334,492.619 L 337.167,492.619 L 333.5,493.619 L 330.5,491.953 L 326.833,492.619 L 322.333,492.619 L 318,490.369 L 316.25,490.369 L 314.333,492.285 L 311,492.953 L 307.833,491.285 L 305,491.285 L 301.167,490.119 L 295.5,490.285 L 291.333,489.453 L 288.333,490.285 L 285.666,487.953 L 281.833,485.953 L 278.333,485.953 L 277.166,489.619 L 278.333,492.119 L 276,494.453 L 277.833,495.619 L 279.666,497.453 L 281.916,499.703 L 279.833,501.785 L 277.5,501.785 L 274.667,498.953 L 270.334,499.119 L 267.501,500.285 L 268.668,504.453 L 267.501,507.453 L 264.668,508.285 L 261.335,507.453 L 260.002,510.953 L 261.085,513.369 L 263.418,515.703 L 265.001,517.285 L 265.668,520.119 L 268.001,522.453 L 265.668,525.619 L 263.501,527.785 L 259.834,527.785 L 256.084,528.035 L 254.167,526.119 L 252.834,523.41 L 251.126,523.41 L 249.334,525.203 L 246.417,525.203 L 243.167,521.953 L 242.542,520.078 L 240.084,517.619 L 240.084,513.369 L 238,511.285 L 234.167,511.285 L 231,512.453 L 229.833,509.953 L 226.666,507.453 L 223.833,505.953 L 220,507.787 L 216.5,508.287 L 213.667,507.453 L 211.667,503.619 L 208.834,501.119 L 206.834,504.453 L 204.667,504.453 L 204.667,501.787 L 206.667,499.787 L 205.334,496.953 L 203.667,492.619 L 203,488.119 L 200.5,485.119 L 196.5,483.619 L 195.334,480.787 L 193.167,478.619 L 189.167,479.287 L 186.834,479.287 L 186.834,476.119 L 185.667,472.787 L 181.584,472.035 L 179.501,474.119 L 175.668,475.453 L 172.335,473.619 L 168.835,473.619 L 167.168,476.119 L 163.668,476.119 L 159.835,476.119 L 159,477.953 L 156.833,480.119 L 156.5,483.285 L 152.417,482.537 L 150,480.119 L 150,476.785 L 151.084,473.535 L 149.334,471.785 L 146.5,471.785 L 145.333,474.453 L 143.166,476.035 L 139.916,476.035 L 137.333,478.619 L 135.166,480.785 L 135.166,483.785 L 132.333,484.953 L 129.333,484.785 L 127.166,486.953 L 124.499,488.785 L 125.582,492.035 L 127.999,494.453 L 126.999,498.785 L 124.832,500.953 L 126.999,502.285 L 130.166,505.285 L 132.166,507.285 L 131.333,511.619 L 132.25,517.285 L 132.25,521.869 L 130.5,523.619 L 128.833,521.785 L 126.333,521.453 L 126.666,524.453 L 128.083,527.369 L 130.166,529.453 L 128.499,531.119 L 125.666,531.453 L 123.333,531.453 L 121.5,531.453 L 120,531.453 C 120,531.453 118,531.703 116.417,531.703 C 114.834,531.703 115.167,530.453 115.167,530.453 L 112.667,529.785 L 111.501,528.619 L 108.501,528.119 L 108.501,530.453 L 106.168,531.453 L 103.335,534.785 L 100.168,534.785 L 96.668,535.785 L 94.626,535.244 L 92.918,536.953 L 92.918,539.703 L 94.668,541.453 L 95.668,544.619 L 94.835,547.785 L 94.085,550.703 L 92.168,552.619 L 92.168,553.785 L 90.501,555.285 L 86.834,561.285 L 86.834,565.953 L 87.834,571.619 L 87.167,575.953 L 87.5,581.285 L 83.5,583.119 L 80.833,581.953 L 77,583.285 L 73.333,582.453 L 72.833,579.285 L 71,573.785 L 70.667,569.785 L 68,567.953 L 68,565.785 L 66.667,562.285 L 64.334,559.285 L 65.834,556.785 L 66.834,553.953 L 64.334,551.285 L 63.501,548.285 L 60.668,547.953 L 60.085,546.203 L 58,544.119 L 54.333,543.619 L 52,541.285 L 51.333,535.953 L 49,533.785 L 49.667,530.453 L 46.834,528.119 L 45.334,524.287 L 42.834,523.119 L 39.167,520.619 L 38,516.619 L 35.5,512.787 L 34.667,509.453 L 32.834,509.119 L 31.501,507.453 L 29.834,505.119 L 27.667,505.453 L 26.334,501.453 L 26.834,493.787 L 26.167,488.119 L 24.834,485.287 L 23.167,482.787 L 23.5,477.787 L 21.5,475.953 L 20.167,473.287 L 21.167,470.287 L 20.334,466.953 L 22.167,465.119 L 24.167,464.787 L 26.834,468.119 L 29.334,468.953 L 30.501,466.453 L 33.334,465.287 L 37.167,465.119 L 39.167,465.119 L 41.667,465.953 L 42.167,461.787 L 40.834,459.287 L 41.501,457.119 L 43.501,457.453 L 45.334,458.787 L 47.334,460.619 L 48.834,459.119 L 51.167,460.119 L 55,460.619 L 57.833,461.787 L 58.5,458.787 L 56.5,457.287 L 53.667,456.619 L 51.834,454.787 L 49.834,454.119 L 52.334,451.453 L 56,449.787 L 59.167,451.119 L 62,449.953 L 64.667,452.787 L 68.667,457.119 L 72.334,453.453 L 74.834,451.953 L 74.167,448.285 L 76.5,445.953 L 78.833,446.287 L 78.666,443.619 L 84.833,442.787 L 86,439.953 L 87.333,438.287 L 84.5,436.953 L 84.5,433.453 L 81.833,430.453 L 80.833,426.619 L 78.333,425.119 L 75.666,422.119 L 76.666,418.619 L 75.666,413.452 L 72.5,411.12 L 68.833,408.287 L 67.666,404.453 L 65.166,402.453 L 64.333,400.12 L 66.5,397.62 L 68.167,393.953 L 68.167,390.453 L 66.334,387.12 L 64.501,384.287 L 66.168,382.954 L 67.168,380.454 L 69.168,380.454 L 70.668,379.121 L 71.835,374.621 L 72.168,371.954 L 70.834,368.621 L 69,366.787 L 66.5,366.454 L 64.667,364.454 L 63.167,362.287 L 60.917,364.203 L 59.167,362.453 L 57.667,359.953 L 59.167,357.286 L 62.334,354.119 L 64.501,351.619 L 65.334,348.619 L 67.834,348.452 L 69.667,350.452 L 70.667,352.952 L 74,354.12 L 77.167,353.12 L 78,349.787 L 79,346.12 L 76.5,343.62 L 78.167,342.453 L 78,339.62 L 79,335.62 L 80.833,331.287 L 82.166,327.62 L 85.499,326.62 L 86.666,324.12 L 89.833,321.453 L 89.833,315.786 L 87,313.12 L 83.833,312.287 L 84.833,309.787 L 85.666,307.12 L 83.333,304.787 L 81.833,301.454 L 82.333,299.121 L 85.5,295.954 L 87.333,292.621 L 86.5,289.621 L 89.167,288.954 L 93.167,286.454 L 93.167,282.954 L 94.834,280.954 L 99,280.787 L 100.833,278.62 L 101,276.12 L 104.5,274.787 L 107.333,270.954 L 111.166,271.121 L 114.499,269.121 L 118.999,270.121 L 119.666,267.621 L 121.166,266.121 L 123.999,267.454 L 126.332,269.954 L 130,271.12 L 131.333,274.12 L 132.666,277.453 L 134.666,275.453 L 134.333,270.62 L 131.333,267.953 L 131.333,262.286 L 134,261.62 L 134.833,260.787 L 131.166,259.287 L 128.999,256.787 L 166.332,256.62 L 173.332,254.12 L 173.332,249.787 L 174.499,238.787 L 179.166,238.787 L 183.166,235.62 L 183.166,231.287 L 186.166,230.12 L 186.166,224.453 L 188.833,224.286 L 194.666,219.619 L 197.499,220.952 L 203.666,209.452 L 204.083,206.369 L 209.166,201.286 L 217.666,201.286 L 220.333,196.619 L 220.333,187.619 L 225.666,184.952 L 232.666,181.452 L 237.499,183.285 L 240.333,183.285 L 242.666,185.618 L 245.528,183.624 L 244.832,187.118 L 247.665,186.785 L 251.665,186.952 L 251.665,189.619 L 252.498,192.619 L 250.665,191.452 L 248.748,189.535 L 246.998,191.285 L 247.831,194.452 L 247.831,197.619 L 250.664,199.119 L 252.831,201.286 L 252.831,204.786 L 255.248,205.953 L 255.248,209.87 L 257.998,212.62 L 259.331,217.287 L 259.331,222.12 L 258.498,226.287 L 259.498,228.62 L 259.581,233.703 L 262.498,236.62 L 262.331,240.287 L 261.664,246.287 L 258.747,251.37 L 254.33,255.787 L 249.663,255.787 L 244.496,256.787 L 239.996,255.12 L 235.079,252.37 L 232,249.286 L 232,244.786 L 228.833,241.619 L 227.333,238.119 L 226.166,234.786 L 224,231.12 L 222.833,224.953 L 220.5,223.953 L 221.25,220.203 L 223.167,218.286 L 220.834,215.953 L 219.751,218.87 L 218.168,220.453 L 218.835,224.12 L 218.918,228.37 L 217.085,230.203 L 219.502,232.62 L 218.835,236.287 L 216.502,241.454 L 212.419,242.704 L 209.169,245.954 L 207.919,251.871 L 204.836,254.954 L 205.836,258.454 L 207.336,262.787 L 204.919,267.037 L 208.336,270.454 L 212,274.12 L 216.167,271.12 L 217,266.954 L 214.833,264.787 L 215.166,261.12 L 215.166,258.287 L 217.999,255.287 L 220.832,255.287 L 221.832,262.787 L 222.749,267.704 L 225.666,270.621 L 227.499,274.454 L 232.249,275.871 L 233.666,274.454 L 232.499,271.621 L 235.332,269.288 L 235.499,263.455 L 240.666,264.288 L 245.499,262.455 L 249.499,264.622 L 253.999,263.205 L 257.082,263.205 L 259,265.12 L 261.833,269.453 L 259.5,271.786 L 259.5,275.453 L 261.583,272.87 L 264.5,269.953 L 268.5,269.12 L 271.833,264.287 L 271.833,260.12 L 273.166,257.287 L 277.499,255.12 L 277.499,252.453 L 281.666,249.953 L 281.666,245.786 L 280.999,241.786 L 283.832,241.786 L 284.749,243.869 L 288.499,247.619 L 291.332,251.952 L 291.332,257.785 L 290.332,260.785 L 288.832,262.285 L 286.332,259.785 L 282.832,258.952 L 277.499,260.785 L 277.499,265.118 L 278.832,269.118 L 278.832,272.451 L 282.665,273.451 L 286.332,275.118 L 290.499,273.118 L 290.499,270.118 L 294.832,269.118 L 298.999,271.118 L 298.332,268.451 L 304.832,269.618 L 308.332,268.951 L 314.665,269.784 L 318.332,269.784 L 320.165,273.117 L 321.832,273.117 L 321.832,270.117 L 327.165,268.45 L 330,268.45 L 331.167,272.783 L 328,272.783 L 327,275.783 L 324.5,276.616 L 328.333,280.116 L 331,280.116 L 336,277.949 L 340.75,278.866 L 345.917,284.033 L 347.667,282.283 L 351.167,282.283 L 355.584,280.866 L 357.334,282.616 L 356.834,284.949 L 354.167,286.782 L 354.167,289.615 L 357.334,292.282 L 357.584,289.199 L 359.001,287.782 L 362.334,288.615 L 362.334,285.948 L 365.501,285.448 L 366.168,281.448 L 365.668,276.615 L 368.668,275.115 L 371.251,274.365 L 374.334,277.448 L 375.667,276.115 L 379.084,280.365 L 383.001,284.282 L 386.168,287.449 L 388.251,291.699 L 392.168,295.616 L 394.835,299.783 L 397.668,303.616 L 397.668,306.949 L 400,310.62 L 403.333,308.62 L 403.333,305.12 L 407.166,301.62 L 404.499,300.787 L 402.666,296.454 L 403.333,291.787 L 400.166,289.62 L 398.416,286.037 L 399.999,284.454 L 403.332,282.787 L 403.332,280.12 L 404.165,276.12 L 405.665,274.12 L 405.665,271.62 L 403.498,270.953 L 404.665,267.62 L 406.498,265.287 L 409.831,264.12 L 413.414,262.37 L 414.664,261.12 L 417.497,258.287 L 419.664,253.454 L 421.331,249.454 L 423.164,245.454 L 426.331,243.787 L 428.331,246.62 L 432.331,246.62 L 434.331,248.62 L 437.831,248.62 L 439.331,254.287 L 437.664,255.954 L 436.914,262.037 L 432.164,266.787 L 430.831,271.12 L 433.664,273.62 L 432.664,279.287 L 431.831,283.787 L 428.498,288.787 L 427.331,295.954 L 425.498,302.287 L 424.165,305.454 L 425.415,309.871 L 428.332,312.788 L 427.832,315.455 L 424.165,318.288 L 423.498,324.455 L 419.831,325.455 L 415.498,329.788 L 412.998,333.455 L 410.665,334.788 L 406.498,333.955 L 403.998,335.622 L 401.248,333.872 L 399.498,332.122 L 396.998,331.289 L 396.998,334.456 L 399.498,338.289 L 401.998,339.456 L 405.331,341.789 L 408.164,341.622 L 410.164,344.455 L 413.164,344.455 C 413.164,344.455 414.414,342.205 413.747,341.538 C 413.08,340.871 415.497,339.788 415.497,339.788 L 417.664,339.788 L 418.664,338.788 L 422.831,337.621 L 426.164,335.788 L 426.164,332.288 L 427.664,330.788 L 430.247,328.205 L 432.33,326.122 L 433.33,322.122 L 432.497,318.622 L 432.164,315.455 L 434.414,313.205 L 436.664,310.955 L 440.164,310.955 L 443.997,310.455 L 445.08,313.705 L 446.663,315.288 L 448.663,320.455 L 446,323.12 L 446.167,327.12 L 446.167,329.62 L 449.5,332.953 L 453.333,333.786 L 453.333,331.453 L 449.583,330.37 L 448.166,328.953 L 448.166,326.953 L 447.833,323.953 L 450.5,323.12 L 451.5,320.953 L 450.5,317.786 L 451.667,315.119 L 450,311.786 L 447.833,309.786 L 446.5,308.453 L 442.417,307.036 L 440.084,304.703 L 438.167,306.62 L 435.667,307.787 L 434.334,305.954 L 431.334,305.954 L 430.834,302.787 L 432.834,300.787 L 432.334,295.454 L 434.667,291.787 L 436.167,287.454 L 439.5,284.121 L 438.333,280.454 L 437.333,277.287 L 437.75,273.871 L 435.333,271.454 L 438,268.787 L 442.167,264.62 L 445.667,264.62 L 447.667,261.453 L 449,257.953 L 447.833,255.12 L 449,252.62 L 451.667,252.62 L 450.834,256.12 L 450.834,260.953 L 450.167,265.286 L 447.167,268.286 L 447.167,272.453 L 447.167,275.453 L 450.667,278.12 L 452.667,279.787 L 455.25,278.204 L 457.833,280.787 L 460.666,283.454 L 460.666,281.454 L 459.583,278.871 L 457.666,276.954 L 454.666,275.454 L 454.666,274.121 L 452.166,271.621 L 451,267.953 L 454.5,265.62 L 456.167,267.287 L 458.834,269.954 L 460.834,268.121 L 460.167,265.954 L 459.917,264.037 L 461.834,262.12 L 465.167,262.787 L 467.917,262.37 L 470.167,264.62 L 474.5,266.953 L 473.333,270.286 L 474.416,271.369 L 477.333,274.286 L 481.833,274.286 L 482.5,271.619 L 480.667,269.119 L 480.834,266.786 L 477.667,265.619 L 475.334,261.786 L 474,260.453 L 475,256.453 L 476.5,253.12 L 475.167,251.787 L 474.334,247.62 L 477.667,244.62 L 485.5,244.62 L 489.5,246.12 L 489.5,245.12 L 496,245.12 L 500.333,243.287 L 503.499,243.287 L 505.166,241.62 L 503.499,239.12 L 501.499,238.453 L 499.832,236.786 C 499.832,236.786 500.499,236.119 501.749,234.869 C 502.999,233.619 502.999,236.119 502.999,236.119 L 504.999,235.619 L 503.666,234.119 L 504.583,232.036 L 503.166,230.619 L 504.833,228.286 L 507.166,226.453 L 504.833,226.286 L 504.666,223.786 L 509.333,223.953 L 511.166,220.12 L 515.749,218.37 L 517.499,216.62 L 523.749,215.703 L 525.332,214.12 L 529.832,212.787 L 530.832,211.62 L 527.832,210.62 L 529.499,208.953 L 533.832,207.953 L 537.499,207.453 L 538.332,205.62 L 541.332,205.12 L 539.749,208.12 L 539.749,210.537 L 541.832,208.454 L 547,208.62 L 547.5,205.953 L 550.833,205.286 L 554.166,205.953 L 552.666,203.953 L 550.666,202.453 L 549.666,200.62 L 553.333,200.62 L 557.166,199.453 L 558.333,199.453 L 558,196.62 L 556.666,195.62 L 556.666,191.62 L 557.5,188.953 L 560,182.786 L 563,180.619 L 565.666,177.786 L 569,179.786 L 571.5,179.453 L 572.25,182.87 L 569.666,185.453 L 567.5,188.286 L 572.791,188.578 L 573.833,187.536 L 577.083,187.536 L 579.5,189.953 L 577.333,192.12 C 577.333,192.12 577.166,194.287 578.166,194.287 C 579.166,194.287 581.833,195.454 581.833,195.454 L 582.666,192.621 L 581.166,191.121 L 584.833,189.121 L 588.166,189.121 L 591.583,186.704 L 593.5,188.621 L 596.083,187.371 L 598,189.288 L 599.666,192.621 L 601.666,194.288 L 602.833,192.955 L 604.583,194.705 L 606.833,196.955 L 606.5,200.455 L 603.166,199.788 L 604.5,201.121 L 607.833,202.954 L 609.916,206.537 L 608,208.453 L 608,211.786 L 606.333,214.119 L 604.75,217.369 L 602.833,219.286 L 599.5,223.286 L 599.5,224.953 L 598.5,229.62 L 596,232.12 L 595,237.287 L 591,238.287 L 589.75,242.037 L 587,244.787 L 586.333,249.12 L 585.5,252.12 L 588.5,250.787 L 587.833,247.454 L 590.833,245.621 C 590.833,245.621 593.5,244.788 595,244.788 C 596.5,244.788 597,241.788 597,241.788 L 599.833,239.455 L 602.5,238.455 L 604.083,235.372 L 602.833,234.122 L 600.833,233.955 L 601,232.62 L 600.833,229.953 L 603.333,229.786 L 605.333,229.786 L 608.166,230.453 L 611.5,231.786 L 612.166,229.786 L 614.25,226.869 L 616,228.619 L 616,231.952 L 618,234.785 L 620.333,234.785 L 618,232.62 L 619.583,231.037 L 622.666,227.954 L 626.833,225.787 L 633.166,224.62 L 638.166,223.12 L 639.417,225.037 L 638.25,226.204 L 641,228.954 L 646.166,228.954 L 646.333,227.621 L 646.833,225.788 L 648.833,228.955 L 652.333,227.622 L 655.833,224.622 C 655.833,224.622 659.5,223.955 660.333,223.955 C 661.166,223.955 660.333,220.955 660.333,220.955 L 659.833,217.622 L 657.333,213.789 L 658,209.956 L 658.5,207.956 L 660.5,209.956 L 662.583,208.373 L 664.333,210.123 L 667,211.956 L 667.666,209.956 L 669,209.62 L 670.333,211.12 L 671.666,210.12 C 671.666,210.12 671.5,207.037 672.75,207.037 C 674,207.037 674.333,205.454 674.333,205.454 L 678,208.287 L 679.166,207.12 L 683.166,208.453 L 681.833,212.536 L 683.749,212.536 L 685.666,214.453 L 685.666,217.62 L 688.833,215.62 L 690.5,217.287 L 690.5,220.954 L 688.333,221.621 L 687,222.953 L 689.333,225.286 C 689.333,225.286 691.166,224.453 691.166,223.619 C 691.166,222.785 692.666,225.119 692.666,225.119 L 692.666,227.786 L 696.083,227.702 L 699.333,230.952 L 701.833,232.619 L 705.333,233.286 L 706.833,231.786 L 710.666,233.786 L 711,230.62 L 709.333,225.12 L 708.333,222.62 L 708.333,220.287 L 706.166,218.12 L 706.166,215.12 L 710.333,215.62 L 712.666,217.953 L 716.333,216.953 L 720.5,216.953 L 719.666,212.62 L 722,208.287 L 726.333,207.287 L 729.5,207.12 L 733.166,208.12 L 733.166,205.62 L 729.25,203.87 L 730.666,202.453 L 732.5,200.453 L 735.666,200.62 L 738.166,198.12 L 737,197.453 L 734.5,194.953 L 731.666,193.453 L 731.666,189.786 L 730.5,188.786 L 728.833,193.119 L 726.833,191.786 L 726.833,188.286 L 730.5,184.953 L 730,182.62 L 726.5,180.453 L 728.666,178.286 L 731.833,178.286 L 736.5,175.953 L 737.833,172.12 L 744,169.787 L 748.833,167.62 C 748.833,167.62 749.5,168.287 749.5,169.287 C 749.5,170.287 746.333,171.454 746.333,171.454 L 745.166,175.954 L 748,174.62 L 750.5,172.12 L 753.666,173.12 L 752.833,179.62 L 755.666,176.953 L 755.666,173.786 L 754.666,168.453 L 755.333,166.12 L 756.833,161.953 L 760.333,160.286 L 765.333,158.119 L 768.333,160.286 C 768.333,160.286 766.916,162.203 765.833,163.286 C 764.75,164.369 767,165.12 767,165.12 L 770.666,165.12 L 773,162.453 C 773,162.453 775.666,165.286 776.166,165.786 C 776.666,166.286 775.666,161.953 775.666,161.953 L 780.166,159.453 L 783.333,161.12 L 786.833,160.954 L 790,157.787 L 793.333,153.62 L 793.333,148.787 L 797.5,142.62 L 801,139.12 L 804.166,135.287 L 809.666,134.454 L 814.25,134.204 L 816.5,136.454 L 821.166,141.121 L 825.333,139.288 L 828.333,136.871 L 831.583,136.871 L 830,135.287 L 830,132.953 L 833.166,129.787 L 833.166,124.287 L 834.666,121.454 L 837.166,121.454 L 839.333,119.287 L 839.333,115.954 L 843.5,112.954 L 844.5,108.954 L 842.833,107.287 L 843.5,105.287 L 841.167,101.954 L 843,98.62 L 844.75,96.87 L 847.917,100.037 L 845.5,102.454 L 848,104.954 L 851.833,104.954 L 854.5,103.954 L 858.167,102.287 L 861.5,101.454 L 862.333,98.787 L 861.333,96.12 L 859.5,95.787 L 853.833,93.287 L 849.667,93.954 L 848.667,91.621 L 845.333,91.621 L 845.333,89.788 L 846.167,86.621 L 849.167,85.121 L 849.5,81.621 L 852.167,80.121 L 854.5,80.121 L 853.5,77.288 L 854.5,74.288 L 857.333,70.12 z " id="path200" />
    <polygon points="880.727,390.784 879.285,392.37 879.285,394.388 879.285,396.551 881.736,395.542 883.035,396.84 884.477,395.399 885.053,392.513 883.467,390.207 880.727,390.784 " id="polygon202" />
    <path d="M 920.815,375.931 L 919.661,376.22 L 918.797,373.768 L 918.797,371.605 L 922.546,372.614 L 924.42,373.479 L 925.43,375.787 L 927.449,377.806 L 931.054,378.527 L 931.919,380.834 L 935.956,383.43 L 938.119,383.43 L 939.849,385.881 L 941.291,389.775 L 943.526,392.009 L 947.78,396.408 L 950.519,397.129 L 954.269,398.571 L 957.874,401.744 L 962.777,404.483 L 965.949,407.223 L 970.132,409.386 L 973.736,411.549 L 976.044,413.423 L 980.081,415.01 L 979.505,416.885 L 978.064,418.326 L 975.324,419.191 L 973.161,419.191 L 973.738,422.219 L 973.161,424.382 L 973.161,426.112 L 975.612,429.862 C 975.612,429.862 977.921,432.456 977.487,432.889 C 977.053,433.322 977.632,437.36 977.632,437.36 L 979.507,439.235 L 982.391,442.12 L 984.842,443.706 L 988.591,443.706 L 990.754,445.868 L 993.205,445.868 L 994.503,448.608 L 997.676,448.753 L 999.622,446.806 L 1003.011,448.753 L 1005.031,451.349 C 1005.031,451.349 1005.753,453.079 1005.031,453.079 C 1004.309,453.079 1000.416,451.204 1000.416,451.204 L 998.758,452.862 L 995.081,452.862 L 993.928,455.819 L 994.649,458.702 L 996.956,461.009 L 998.686,464.759 L 996.379,466.634 L 994.504,464.327 L 992.053,461.874 L 987.727,457.837 L 987.727,455.097 L 984.843,452.214 L 982.104,449.474 L 980.229,447.023 L 977.921,442.552 L 975.037,439.812 L 972.009,438.082 L 969.125,437.217 L 966.672,432.026 L 961.337,424.672 L 957.011,420.345 L 953.407,416.741 L 950.233,412.415 L 948.214,409.099 L 942.735,406.647 L 938.409,404.773 L 935.813,404.484 L 932.352,399.725 L 932.352,397.563 L 928.603,393.813 L 926.584,390.064 L 922.546,388.766 L 923.556,385.882 L 923.556,383.719 L 926.872,384.728 L 927.449,381.844 L 925.503,379.898 L 925.503,378.816 L 923.592,376.904 L 920.815,375.931 z " id="path204" />
    <polygon points="1042.666,451.203 1043.243,454.23 1043.531,457.115 1044.686,457.547 1044.686,455.24 1045.551,453.365 1045.551,450.77 1042.666,451.203 " id="polygon206" />
    <polygon points="1052.616,452.934 1052.616,454.23 1054.491,455.24 1054.491,453.076 1052.616,452.934 " id="polygon208" />
    <polygon points="1046.704,441.252 1048.435,441.973 1049.012,439.666 1048.146,435.053 1049.732,433.467 1049.444,430.148 1046.992,429.428 1046.271,433.178 1047.209,434.113 1046.416,436.926 1046.704,441.252 " id="polygon210" />
    <polygon points="1051.03,422.217 1050.309,422.938 1050.886,425.391 1052.04,423.66 1051.03,422.217 " id="polygon212" />
    <polygon points="1052.761,413.42 1053.481,409.671 1052.473,407.365 1053.049,404.913 1054.996,402.965 1055.5,405.634 1055.067,408.374 1055.645,411.546 1054.635,413.853 1052.761,413.42 " id="polygon214" />
    <polygon points="970.709,195.098 970.709,198.27 970.421,201.154 972.151,202.308 973.305,203.75 973.449,206.345 975.757,207.21 975.18,204.615 974.17,202.596 975.18,199.279 975.18,195.242 972.439,194.088 970.709,195.098 " id="polygon216" />
    <polygon points="1026.804,210.239 1024.785,210.96 1025.795,213.123 1029.256,213.123 1032.717,213.123 1034.88,210.96 1032.14,210.095 1029.399,211.249 1026.804,210.239 " id="polygon218" />
    <polygon points="1036.756,316.516 1035.891,319.111 1034.521,320.481 1036.107,322.068 1037.044,324.014 1036.756,326.61 1036.611,329.926 1038.125,331.44 1039.784,330.503 1039.784,327.042 1041.298,325.529 1040.072,322.572 1038.054,320.553 1038.197,317.958 1036.756,316.516 " id="polygon220" />
    <polygon points="1042.956,339.011 1042.956,341.174 1044.398,341.895 1045.408,340.598 1042.956,339.011 " id="polygon222" />
    <polygon points="1054.637,381.263 1054.637,384.436 1054.637,387.031 1056.656,387.031 1056.079,384.58 1056.079,382.993 1056.079,381.119 1054.637,381.263 " id="polygon224" />
    <polygon points="1039.065,202.738 1037.19,204.036 1038.199,205.045 1039.569,203.675 1040.939,202.305 1039.065,202.738 " id="polygon226" />
    <polygon points="848.222,29.284 846.898,28.788 845.741,30 843.205,31.324 841.138,33.391 841.33,36.947 840.448,37.83 840.889,40.696 842.543,43.122 844.252,47.092 846.898,47.643 848.69,45.851 850.041,43.398 848.553,41.799 850.758,38.601 850.372,35.128 850.372,30.993 848.222,29.284 " id="polygon228" />
    <polygon points="21.541,258.137 24.135,258.719 26.358,258.084 27.205,256.443 29.216,256.761 31.096,258.64 31.175,261.207 32.71,261.684 33.028,263.695 35.41,264.119 35.939,262.213 34.643,260.916 35.754,259.805 36.469,260.52 38.745,262.425 38.745,265.283 38.427,267.771 39.75,269.941 41.074,270.841 41.55,274.07 40.386,276.505 34.828,279.311 26.411,269.306 21.541,258.137 " id="polygon230" />
  </g>
</svg>
